<svg xmlns="http://www.w3.org/2000/svg" width="10" height="18" viewBox="0 0 10 18"><defs><style>.a{fill:#5d677e;}</style></defs><path class="a" d="M24.45-10.125a.628.628,0,0,0,.237-.044.621.621,0,0,0,.2-.132.576.576,0,0,0,.182-.431.576.576,0,0,0-.182-.431l-8.306-8.023,8.2-7.918a.566.566,0,0,0,.182-.422.566.566,0,0,0-.182-.422.618.618,0,0,0-.446-.176.618.618,0,0,0-.446.176l-8.634,8.34a.566.566,0,0,0-.182.422.566.566,0,0,0,.182.422L24.013-10.3a.6.6,0,0,0,.209.132A.653.653,0,0,0,24.45-10.125Z" transform="translate(25.07 -10.125) rotate(180)"/></svg>