<svg xmlns="http://www.w3.org/2000/svg" width="48.987" height="48.979" viewBox="0 0 48.987 48.979"><defs><style>.a{fill:#bac3cf;}.b{fill:#1cc0ef;}</style></defs><g transform="translate(-482 -2318)"><path class="a" d="M52.74,22.492a3.5,3.5,0,0,0,3.5-3.5V8.5A3.5,3.5,0,0,0,52.74,5H33.5A3.5,3.5,0,0,0,30,8.5v10.5a3.5,3.5,0,0,0,3.5,3.5h.875v2.624a.875.875,0,0,0,1.36.728l5.025-3.352Zm-12.73-1.6-3.888,2.591V21.618a.875.875,0,0,0-.875-.875H33.5a1.749,1.749,0,0,1-1.749-1.749V8.5A1.749,1.749,0,0,1,33.5,6.749H52.74A1.749,1.749,0,0,1,54.489,8.5v10.5a1.749,1.749,0,0,1-1.749,1.749H40.5a.88.88,0,0,0-.485.147Z" transform="translate(474.748 2313)"/><path class="a" d="M35,10h1.749v1.749H35Z" transform="translate(474.121 2312.373)"/><path class="a" d="M39,10H52.994v1.749H39Z" transform="translate(473.619 2312.373)"/><path class="a" d="M35,14H52.492v1.749H35Z" transform="translate(474.121 2311.872)"/><path class="a" d="M35,18H52.492v1.749H35Z" transform="translate(474.121 2311.37)"/><path class="b" d="M34.248,44.744v7.872a2.624,2.624,0,1,0,5.248,0V45.006l11.477,3.061a2.618,2.618,0,0,0,5.141-.7V31.624a2.618,2.618,0,0,0-5.141-.7L38.506,34.248H34.248a5.248,5.248,0,1,0,0,10.5Zm3.5,7.872a.875.875,0,0,1-1.749,0V44.744h1.749ZM53.489,30.75a.875.875,0,0,1,.875.875V47.367a.875.875,0,0,1-1.749,0V31.624A.875.875,0,0,1,53.489,30.75ZM50.865,46.23,39.5,43.2v-7.4l11.37-3.033ZM34.248,36h3.5v7h-3.5a3.5,3.5,0,1,1,0-7Z" transform="translate(474.873 2309.99)"/><path class="a" d="M39.256,33.573a15.7,15.7,0,0,0,.437-3.706q0-.465-.026-.925l-1.749.1c.016.272.024.548.024.824a13.864,13.864,0,0,1-.389,3.291Z" transform="translate(473.801 2309.998)"/><path class="a" d="M25.3,13.008A15.736,15.736,0,0,0,11.283,41a5.005,5.005,0,0,1,2.337,4.231v7a.875.875,0,0,0,.875.875h.875v1.749h1.749V53.105h1.749v1.749h1.749V53.105h1.749v1.749h1.749V53.105h.875a.875.875,0,0,0,.875-.875v-7a5.035,5.035,0,0,1,.979-2.974l-1.406-1.041a6.787,6.787,0,0,0-1.265,3.14H20.617V36.418a6.122,6.122,0,0,0,5.248-6.052H24.115a4.373,4.373,0,1,1-8.746,0H13.62a6.122,6.122,0,0,0,5.248,6.052v7.942H15.313a6.754,6.754,0,0,0-3.093-4.831A13.989,13.989,0,0,1,24.681,14.644Zm-9.93,38.349V49.607h8.746v1.749Zm0-3.5V46.108h8.746v1.749Z" transform="translate(478.009 2312.124)"/><path class="a" d="M20.443,17.749a10.482,10.482,0,0,1,3.229.506l.539-1.662a12.263,12.263,0,0,0-14.632,6l1.551.809a10.474,10.474,0,0,1,9.314-5.655Z" transform="translate(477.309 2311.621)"/><path class="a" d="M8.165,27.577l1.728.268a10.441,10.441,0,0,1,.383-1.615l-1.662-.537a12.26,12.26,0,0,0-.45,1.884Z" transform="translate(477.485 2310.406)"/></g></svg>