<svg xmlns="http://www.w3.org/2000/svg" width="52.5" height="49" viewBox="0 0 52.5 49"><defs><style>.a{fill:#1cc0ef;}.b{fill:#bac3cf;}</style></defs><g transform="translate(-2 -6)"><path class="a" d="M54.028,38.9l-1.361-.975v-3.05A.875.875,0,0,0,51.792,34h-.629l.974-3.892A2.5,2.5,0,0,0,48.208,27.5l-2.541,1.906L43.129,27.5A2.5,2.5,0,0,0,39.2,30.108L40.172,34h-.63a.875.875,0,0,0-.875.875v3.05l-1.361.975a11.329,11.329,0,0,0-.972.778l1.167,1.3a9.73,9.73,0,0,1,.822-.658l1.5-1.074h11.69l1.5,1.072a9.643,9.643,0,0,1,4.03,7.831v1.6a6.132,6.132,0,0,1-6.125,6.125H41.292v1.75h9.625a7.884,7.884,0,0,0,7.875-7.875v-1.6A11.4,11.4,0,0,0,54.028,38.9ZM40.9,29.684a.746.746,0,0,1,.137-.645.774.774,0,0,1,1.043-.139l3.066,2.3a.875.875,0,0,0,1.05,0l3.063-2.3a.771.771,0,0,1,1.043.138.746.746,0,0,1,.137.645L49.359,34H41.974ZM40.417,37.5V35.75h10.5V37.5Z" transform="translate(-4.292 -2.625)"/><path class="a" d="M41.5,46.625A2.625,2.625,0,0,0,38.875,44h-8.75A2.625,2.625,0,0,0,27.5,46.625a2.6,2.6,0,0,0,.161.875H26.625a2.619,2.619,0,0,0-.683,5.148,2.573,2.573,0,0,0,0,1.953,2.619,2.619,0,0,0,.682,5.149h8.75a2.616,2.616,0,0,0,2.432-3.6,2.61,2.61,0,0,0,0-5.047,2.517,2.517,0,0,0,.031-1.852h1.036A2.625,2.625,0,0,0,41.5,46.625Zm-12.25,0a.875.875,0,0,1,.875-.875h8.75a.875.875,0,0,1,0,1.75h-8.75A.875.875,0,0,1,29.25,46.625ZM35.375,58h-8.75a.875.875,0,1,1,0-1.75h8.75a.875.875,0,0,1,0,1.75Zm1.75-3.5h-8.75a.875.875,0,1,1,0-1.75h8.75a.875.875,0,0,1,0,1.75Zm-.875-4.375a.875.875,0,0,1-.875.875h-8.75a.875.875,0,1,1,0-1.75h8.75A.875.875,0,0,1,36.25,50.125Z" transform="translate(-2.75 -4.75)"/><path class="b" d="M6.875,51.5H20V49.75H7.75v-35H36.625v7.875h1.75v-1.75h7a3.5,3.5,0,0,0,3.5-3.5V16.5H53.25a.875.875,0,0,0,.875-.875v-1.75a3.5,3.5,0,0,0-3.5-3.5h-7V9.5a3.5,3.5,0,0,0-3.5-3.5H9.5A3.5,3.5,0,0,0,6,9.5V50.625A.875.875,0,0,0,6.875,51.5Zm45.5-37.625v.875h-3.5v-.875a1.75,1.75,0,0,1,3.5,0Zm-4.764-1.75a3.464,3.464,0,0,0-.487,1.75v3.5a1.75,1.75,0,0,1-3.5,0v-5.25ZM41.875,9.5v7.875a3.464,3.464,0,0,0,.486,1.75H38.375V9.5a1.75,1.75,0,1,1,3.5,0ZM9.5,7.75H37.112a3.464,3.464,0,0,0-.487,1.75V13H7.75V9.5A1.75,1.75,0,0,1,9.5,7.75Z" transform="translate(-0.5)"/><path class="b" d="M10,10h1.75v1.75H10Z" transform="translate(-1 -0.5)"/><path class="b" d="M14,10h1.75v1.75H14Z" transform="translate(-1.5 -0.5)"/><path class="b" d="M18,10h1.75v1.75H18Z" transform="translate(-2 -0.5)"/><path class="b" d="M24.125,33A.875.875,0,0,0,25,32.125V19.875A.875.875,0,0,0,24.125,19H11.875a.875.875,0,0,0-.875.875v12.25a.875.875,0,0,0,.875.875ZM12.75,20.75h10.5v10.5H12.75Z" transform="translate(-1.125 -1.625)"/><path class="b" d="M36.875,19.875A.875.875,0,0,0,36,19H29.875a.875.875,0,0,0-.875.875V24.25a.875.875,0,0,0,.875.875H36a.875.875,0,0,0,.875-.875Zm-1.75,3.5H30.75V20.75h4.375Z" transform="translate(-3.375 -1.625)"/><path class="b" d="M36.875,33.25V28.875A.875.875,0,0,0,36,28H29.875a.875.875,0,0,0-.875.875V33.25a.875.875,0,0,0,.875.875H36A.875.875,0,0,0,36.875,33.25Zm-1.75-.875H30.75V29.75h4.375Z" transform="translate(-3.375 -2.75)"/><path class="b" d="M11,38h1.75v1.75H11Z" transform="translate(-1.125 -4)"/><path class="b" d="M15,38H30.75v1.75H15Z" transform="translate(-1.625 -4)"/><path class="b" d="M11,42H25v1.75H11Z" transform="translate(-1.125 -4.5)"/><path class="b" d="M11,46H22.375v1.75H11Z" transform="translate(-1.125 -5)"/><path class="b" d="M11,50h9.625v1.75H11Z" transform="translate(-1.125 -5.5)"/><path class="b" d="M2,18H3.75V38.125H2Z" transform="translate(0 -1.5)"/><path class="b" d="M2,43H3.75v1.75H2Z" transform="translate(0 -4.625)"/></g></svg>