<svg xmlns="http://www.w3.org/2000/svg" width="48.508" height="48.979" viewBox="0 0 48.508 48.979"><defs><style>.a{fill:#1cc0ef;}.b{fill:#bac3cf;}</style></defs><g transform="translate(-902 -2318.11)"><path class="a" d="M0,0H1.605V1.606H0Z" transform="matrix(0.985, -0.174, 0.174, 0.985, 915.166, 2356.29)"/><g transform="translate(910.042 2318.11)"><path class="a" d="M61.324,17.853l-2.7-15.29a5.74,5.74,0,0,0-.234-.894L56.878,2.2a4.069,4.069,0,0,1,.169.642l2.7,15.29Z" transform="translate(-20.858 -1.131)"/><path class="a" d="M47.457,21.595a2.409,2.409,0,0,0,1.954-2.79L46.623,2.988a2.4,2.4,0,0,0-4.757.177L30.338,8.306,24.9,9.27a5.62,5.62,0,1,0,1.956,11.068l.7,3.99a4.347,4.347,0,0,0-.545.058,4.278,4.278,0,0,0-3.179,2.5L22.777,29.3a1.606,1.606,0,0,1-1.192.937l-1.1.194-.14-.791a.8.8,0,0,0-.93-.651l-5.535.976L13.6,28.379l-1.58.279,3.067,17.4,1.581-.279L16.385,44.2l5.54-.976a.8.8,0,0,0,.65-.93l-.14-.791,2.189-.385a16.094,16.094,0,0,0,7.163.367l5.16-.91a2.384,2.384,0,0,0,1.668-3.556l.147-.026a2.382,2.382,0,0,0,1.664-3.553l.936-.165a2.409,2.409,0,0,0-.836-4.744l-.145.026a2.381,2.381,0,0,0,.006-.817A2.409,2.409,0,0,0,37.6,25.783l-3.163.562-1.216-6.9,11.66.827a2.391,2.391,0,0,0,2.579,1.33ZM21.925,15.5a4.02,4.02,0,0,1,3.257-4.65l4.744-.837,1.4,7.906-3.533.624-.418.074-.79.139A4.027,4.027,0,0,1,21.923,15.5ZM16.106,42.613l-1.952-11.07,4.744-.836,1.953,11.07ZM37.875,27.358a.8.8,0,1,1,.281,1.581l-5.54.976.279,1.58L40.8,30.1a.8.8,0,1,1,.279,1.582l-3.161.557-5.534.976.279,1.581,5.534-.976a.8.8,0,1,1,.28,1.581l-2.368.417h0l-3.953.7.279,1.581,3.953-.7a.8.8,0,1,1,.279,1.581l-5.161.91a14.494,14.494,0,0,1-6.609-.379.8.8,0,0,0-.369-.021l-2.373.418-1.394-7.908,1.1-.194a3.212,3.212,0,0,0,2.384-1.872l1.06-2.416a2.678,2.678,0,0,1,4.6-.519l.08.112-1.884.332.279,1.581Zm-6.115-.552-.562-.758a4.265,4.265,0,0,0-1.965-1.466l-.8-4.528,3.163-.562,1.256,7.117Zm1.171-8.993L31.475,9.559l10.582-4.72,2.431,13.789Zm13.317,1.55L43.461,3.549a.8.8,0,0,1,.65-.931.76.76,0,0,1,.14-.013.8.8,0,0,1,.792.664L47.83,19.087a.8.8,0,1,1-1.583.275Z" transform="translate(-12.016 -0.998)"/></g><g transform="translate(902 2318.915)"><path class="b" d="M6,46.963a3.212,3.212,0,0,0,3.212,3.212H33.3a3.212,3.212,0,0,0,3.212-3.212V42.145H34.9v4.817A1.606,1.606,0,0,1,33.3,48.568H9.212a1.606,1.606,0,0,1-1.606-1.606V5.212A1.606,1.606,0,0,1,9.212,3.606H33.3a1.611,1.611,0,0,1,1.515,1.07l1.513-.535A3.212,3.212,0,0,0,33.3,2H9.212A3.212,3.212,0,0,0,6,5.212Z" transform="translate(-2.789 -2)"/><path class="b" d="M42,26h1.606v3.212H42Z" transform="translate(-9.884 -6.73)"/><path class="b" d="M22,6h1.606V7.606H22Z" transform="translate(-5.942 -2.788)"/><path class="b" d="M26,6h1.606V7.606H26Z" transform="translate(-6.73 -2.788)"/><path class="b" d="M24,56h1.606v1.606H24Z" transform="translate(-6.337 -12.643)"/><path class="b" d="M2,21H3.606V43.481H2Z" transform="translate(-2 -5.745)"/><path class="b" d="M2,51H3.606v1.606H2Z" transform="translate(-2 -11.658)"/></g></g></svg>