<svg xmlns="http://www.w3.org/2000/svg" width="175.473" height="72.186" viewBox="0 0 175.473 72.186"><defs><style>.a{fill:#dce5ed;}</style></defs><g transform="translate(-184.54 -3134.021)"><path class="a" d="M4.615,5.785A3.389,3.389,0,0,1,7.011,0h20.2A3.389,3.389,0,0,1,30.6,3.389v20.2a3.389,3.389,0,0,1-5.785,2.4Z" transform="translate(277.104 3168.684)"/><path class="a" d="M6.747,12.9A7.555,7.555,0,0,1,12.089,0H57.125A7.555,7.555,0,0,1,64.68,7.555V52.591a7.555,7.555,0,0,1-12.9,5.342Z" transform="translate(180.021 3146.047)"/><path class="a" d="M15.006,13.621A7.979,7.979,0,0,1,20.648,0h47.56a7.979,7.979,0,0,1,7.979,7.979v47.56A7.979,7.979,0,0,1,62.566,61.18Z" transform="translate(283.826 3134.021)"/></g></svg>